<svg xmlns="http://www.w3.org/2000/svg" width="20" height="18" viewBox="0 0 20 18"><g><g><path fill="#b7bad2" d="M20 8.206c0 1.4-.27 2.66-.804 3.74a6.952 6.952 0 0 1-2.22 2.594c-1.71 1.225-4.123 1.872-6.976 1.872-.799 0-1.57-.05-2.299-.151-1.653 1.644-3.687 1.738-4.13 1.738h-.017l-1.404-.002.741-1.181c.004-.006.434-.709.766-1.867C1.26 13.554 0 11.236 0 8.206c0-1.401.27-2.66.804-3.741a6.956 6.956 0 0 1 2.22-2.594C4.734.647 7.147-.001 10-.001c2.853 0 5.266.648 6.976 1.872a6.956 6.956 0 0 1 2.22 2.594c.534 1.081.804 2.34.804 3.74zm-1.563 0c0-2.242-.8-3.951-2.376-5.08C14.619 2.095 12.523 1.549 10 1.549s-4.619.546-6.061 1.579C2.362 4.255 1.562 5.964 1.562 8.206c0 2.666 1.126 4.568 3.346 5.653l.55.269-.133.593a11.354 11.354 0 0 1-.445 1.501 4.388 4.388 0 0 0 1.939-1.294l.288-.331.435.073c.764.128 1.591.194 2.458.194 2.523 0 4.619-.546 6.061-1.579 1.577-1.129 2.376-2.838 2.376-5.08z"/></g></g></svg>