<!--svg 
 xmlns="http://www.w3.org/2000/svg"
 xmlns:xlink="http://www.w3.org/1999/xlink"
 width="47px" height="10px">
<defs>
<linearGradient id="PSgrad_0" x1="100%" x2="0%" y1="0%" y2="0%">
  <stop offset="0%" stop-color="rgb(255,125,86)" stop-opacity="1" />
  <stop offset="100%" stop-color="rgb(255,73,142)" stop-opacity="1" />
</linearGradient>

</defs>
<path fill-rule="evenodd"  fill="rgb(255, 255, 255)"
 d="M46.795,4.747 L41.187,0.168 C40.968,-0.013 40.730,-0.048 40.471,0.064 C40.211,0.175 40.082,0.377 40.082,0.669 L40.082,4.138 L0.655,4.138 C0.464,4.138 0.307,4.201 0.184,4.326 C0.062,4.451 0.000,4.611 0.000,4.806 L0.000,5.340 C0.000,5.535 0.061,5.695 0.184,5.820 C0.307,5.944 0.464,6.007 0.655,6.007 L40.082,6.007 L40.082,9.331 C40.082,9.610 40.212,9.812 40.471,9.936 C40.730,10.048 40.969,10.006 41.187,9.812 L46.795,5.728 C46.932,5.589 46.999,5.422 46.999,5.227 C46.999,5.047 46.931,4.887 46.795,4.747 Z"/>
<path fill="url(#PSgrad_0)"
 d="M46.795,4.747 L41.187,0.168 C40.968,-0.013 40.730,-0.048 40.471,0.064 C40.211,0.175 40.082,0.377 40.082,0.669 L40.082,4.138 L0.655,4.138 C0.464,4.138 0.307,4.201 0.184,4.326 C0.062,4.451 0.000,4.611 0.000,4.806 L0.000,5.340 C0.000,5.535 0.061,5.695 0.184,5.820 C0.307,5.944 0.464,6.007 0.655,6.007 L40.082,6.007 L40.082,9.331 C40.082,9.610 40.212,9.812 40.471,9.936 C40.730,10.048 40.969,10.006 41.187,9.812 L46.795,5.728 C46.932,5.589 46.999,5.422 46.999,5.227 C46.999,5.047 46.931,4.887 46.795,4.747 Z"/>
</svg-->


<svg 
 xmlns="http://www.w3.org/2000/svg"
 xmlns:xlink="http://www.w3.org/1999/xlink"
 width="47px" height="10px">
<path fill-rule="evenodd"  fill="rgb(255, 255, 255)"
 d="M46.795,4.747 L41.187,0.168 C40.968,-0.013 40.730,-0.048 40.471,0.064 C40.211,0.175 40.082,0.377 40.082,0.669 L40.082,4.138 L0.655,4.138 C0.464,4.138 0.307,4.201 0.184,4.326 C0.062,4.451 0.000,4.611 0.000,4.806 L0.000,5.340 C0.000,5.535 0.061,5.695 0.184,5.820 C0.307,5.944 0.464,6.007 0.655,6.007 L40.082,6.007 L40.082,9.331 C40.082,9.610 40.212,9.812 40.471,9.936 C40.730,10.048 40.969,10.006 41.187,9.812 L46.795,5.728 C46.932,5.589 46.999,5.422 46.999,5.227 C46.999,5.047 46.931,4.887 46.795,4.747 Z"/>
</svg>