<svg xmlns="http://www.w3.org/2000/svg" width="55" height="11" viewBox="0 0 55 11"><defs><linearGradient id="bgq6a" x1="55" x2="0" y1="5" y2="6" gradientUnits="userSpaceOnUse"><stop offset="0" stop-color="#ff7d56"/><stop offset="1" stop-color="#ff498e"/></linearGradient></defs><g><g><path fill="#fff" d="M54.76 5.223L48.197.185A.795.795 0 0 0 47.36.07c-.303.123-.455.345-.455.667v3.815H.766a.762.762 0 0 0-.55.207.701.701 0 0 0-.216.529v.586a.7.7 0 0 0 .216.528.765.765 0 0 0 .55.206h46.138v3.657c0 .307.153.529.455.666.304.123.583.076.839-.137L54.76 6.3a.735.735 0 0 0 .238-.551.71.71 0 0 0-.239-.527z"/><path fill="url(#bgq6a)" d="M54.76 5.223L48.197.185A.795.795 0 0 0 47.36.07c-.303.123-.455.345-.455.667v3.815H.766a.762.762 0 0 0-.55.207.701.701 0 0 0-.216.529v.586a.7.7 0 0 0 .216.528.765.765 0 0 0 .55.206h46.138v3.657c0 .307.153.529.455.666.304.123.583.076.839-.137L54.76 6.3a.735.735 0 0 0 .238-.551.71.71 0 0 0-.239-.527z"/></g></g></svg>