<svg xmlns="http://www.w3.org/2000/svg" width="25" height="25" viewBox="0 0 25 25"><defs><linearGradient id="aw5ba" x1="25.01" x2=".01" y1="13" y2="12.01" gradientUnits="userSpaceOnUse"><stop offset="0" stop-color="#ff7d56"/><stop offset="1" stop-color="#ff498e"/></linearGradient><linearGradient id="aw5bb" x1="21.49" x2="5.49" y1="11.28" y2="10.71" gradientUnits="userSpaceOnUse"><stop offset="0" stop-color="#ff7d56"/><stop offset="1" stop-color="#ff498e"/></linearGradient></defs><g><g opacity=".25"><path d="M23.27 6.456L3.262.072C2.675-.099 2.05.095 1.567.205-.36.647.005 2.055.095 2.411l5.367 21.19c.076.302.439 1.768 2.366 1.326.482-.11 1.132-.208 1.573-.615L24.157 9.96c1.224-1.13.737-2.022.737-2.022s.006-1.005-1.624-1.482z"/><path fill="url(#aw5ba)" d="M23.27 6.456L3.262.072C2.675-.099 2.05.095 1.567.205-.36.647.005 2.055.095 2.411l5.367 21.19c.076.302.439 1.768 2.366 1.326.482-.11 1.132-.208 1.573-.615L24.157 9.96c1.224-1.13.737-2.022.737-2.022s.006-1.005-1.624-1.482z"/></g><g><path d="M20.227 9.757L7.993 2.45c-.362-.204-.81-.17-1.15-.17-1.357 0-1.35.993-1.35 1.245v14.933c0 .213-.006 1.244 1.35 1.244.34 0 .789.035 1.15-.17l12.233-7.306c1.005-.566.831-1.235.831-1.235s.174-.668-.83-1.235z"/><path fill="url(#aw5bb)" d="M20.227 9.757L7.993 2.45c-.362-.204-.81-.17-1.15-.17-1.357 0-1.35.993-1.35 1.245v14.933c0 .213-.006 1.244 1.35 1.244.34 0 .789.035 1.15-.17l12.233-7.306c1.005-.566.831-1.235.831-1.235s.174-.668-.83-1.235z"/></g></g></svg>