<svg 
xmlns="http://www.w3.org/2000/svg"
xmlns:xlink="http://www.w3.org/1999/xlink"
width="55px" height="11px">
<defs>
<linearGradient id="PSgrad_21" x1="100%" x2="0%" y1="0%" y2="0%">
<stop offset="0%" stop-color="rgb(255,125,86)" stop-opacity="1" />
<stop offset="100%" stop-color="rgb(255,73,142)" stop-opacity="1" />
</linearGradient>

</defs>
<path fill="url(#PSgrad_21)"
d="M54.760,5.223 L48.197,0.185 C47.942,-0.014 47.662,-0.052 47.359,0.070 C47.056,0.193 46.904,0.415 46.904,0.737 L46.904,4.553 L0.766,4.553 C0.543,4.553 0.359,4.621 0.216,4.759 C0.072,4.897 0.000,5.073 0.000,5.288 L0.000,5.874 C0.000,6.088 0.072,6.264 0.216,6.402 C0.359,6.540 0.543,6.608 0.766,6.608 L46.904,6.608 L46.904,10.265 C46.904,10.572 47.057,10.794 47.359,10.931 C47.663,11.054 47.942,11.007 48.198,10.794 L54.761,6.301 C54.920,6.148 54.999,5.965 54.999,5.750 C54.999,5.551 54.920,5.375 54.760,5.223 Z"/>
</svg>